<svg xmlns="http://www.w3.org/2000/svg" width="110" height="100" viewBox="0 0 110 100">
  <g id="dots" transform="translate(-51 -200)">
    <circle id="Ellipse_56" data-name="Ellipse 56" cx="4.5" cy="4.5" r="4.5" transform="translate(51 204)" fill="#da994d"/>
    <circle id="Ellipse_57" data-name="Ellipse 57" cx="8" cy="8" r="8" transform="translate(71 200)" fill="#da994d"/>
    <circle id="Ellipse_58" data-name="Ellipse 58" cx="8" cy="8" r="8" transform="translate(98 200)" fill="#da994d"/>
    <circle id="Ellipse_59" data-name="Ellipse 59" cx="8" cy="8" r="8" transform="translate(125 200)" fill="#da994d"/>
    <circle id="Ellipse_60" data-name="Ellipse 60" cx="4.5" cy="4.5" r="4.5" transform="translate(152 204)" fill="#da994d"/>
    <circle id="Ellipse_61" data-name="Ellipse 61" cx="4.5" cy="4.5" r="4.5" transform="translate(51 225)" fill="#da994d"/>
    <circle id="Ellipse_62" data-name="Ellipse 62" cx="8" cy="8" r="8" transform="translate(71 221)" fill="#da994d"/>
    <circle id="Ellipse_63" data-name="Ellipse 63" cx="8" cy="8" r="8" transform="translate(98 221)" fill="#da994d"/>
    <circle id="Ellipse_64" data-name="Ellipse 64" cx="8" cy="8" r="8" transform="translate(125 221)" fill="#da994d"/>
    <circle id="Ellipse_65" data-name="Ellipse 65" cx="4.5" cy="4.5" r="4.5" transform="translate(152 225)" fill="#da994d"/>
    <circle id="Ellipse_66" data-name="Ellipse 66" cx="4.5" cy="4.5" r="4.5" transform="translate(51 246)" fill="#da994d"/>
    <circle id="Ellipse_67" data-name="Ellipse 67" cx="8" cy="8" r="8" transform="translate(71 242)" fill="#da994d"/>
    <circle id="Ellipse_68" data-name="Ellipse 68" cx="8" cy="8" r="8" transform="translate(98 242)" fill="#da994d"/>
    <circle id="Ellipse_69" data-name="Ellipse 69" cx="8" cy="8" r="8" transform="translate(125 242)" fill="#da994d"/>
    <circle id="Ellipse_70" data-name="Ellipse 70" cx="4.5" cy="4.5" r="4.5" transform="translate(152 246)" fill="#da994d"/>
    <circle id="Ellipse_71" data-name="Ellipse 71" cx="4.5" cy="4.5" r="4.5" transform="translate(51 288)" fill="#da994d"/>
    <circle id="Ellipse_72" data-name="Ellipse 72" cx="8" cy="8" r="8" transform="translate(71 284)" fill="#da994d"/>
    <circle id="Ellipse_73" data-name="Ellipse 73" cx="8" cy="8" r="8" transform="translate(98 284)" fill="#da994d"/>
    <circle id="Ellipse_74" data-name="Ellipse 74" cx="8" cy="8" r="8" transform="translate(125 284)" fill="#da994d"/>
    <circle id="Ellipse_75" data-name="Ellipse 75" cx="4.5" cy="4.5" r="4.5" transform="translate(152 288)" fill="#da994d"/>
    <circle id="Ellipse_76" data-name="Ellipse 76" cx="4.5" cy="4.5" r="4.5" transform="translate(51 267)" fill="#da994d"/>
    <circle id="Ellipse_77" data-name="Ellipse 77" cx="8" cy="8" r="8" transform="translate(71 263)" fill="#da994d"/>
    <circle id="Ellipse_78" data-name="Ellipse 78" cx="8" cy="8" r="8" transform="translate(98 263)" fill="#da994d"/>
    <circle id="Ellipse_79" data-name="Ellipse 79" cx="8" cy="8" r="8" transform="translate(125 263)" fill="#da994d"/>
    <circle id="Ellipse_80" data-name="Ellipse 80" cx="4.5" cy="4.5" r="4.5" transform="translate(152 267)" fill="#da994d"/>
  </g>
</svg>
