<svg xmlns="http://www.w3.org/2000/svg" width="1588" height="646" viewBox="0 0 1588 646">
  <g id="home_bg" transform="translate(87 -80)">
    <path id="Path_13" data-name="Path 13" d="M0,408c0,140.876,32.675,47.7,92.745,174.435,75.089,158.415,158.051-94.337,404.175,0C693.819,657.9,712.2,524.4,918,471" fill="none" stroke="#d9d9d9" stroke-width="1"/>
    <g id="Group_32" data-name="Group 32">
      <ellipse id="Ellipse_29" data-name="Ellipse 29" cx="189" cy="201" rx="189" ry="201" transform="translate(-87 80)" fill="rgba(36,162,236,0.09)"/>
    </g>
    <g id="Group_33" data-name="Group 33">
      <ellipse id="Ellipse_30" data-name="Ellipse 30" cx="189" cy="201" rx="189" ry="201" transform="translate(1123 324)" fill="rgba(36,162,236,0.09)"/>
    </g>
    <circle id="Ellipse_31" data-name="Ellipse 31" cx="4.5" cy="4.5" r="4.5" transform="translate(1286 429)" fill="#da994d"/>
    <circle id="Ellipse_32" data-name="Ellipse 32" cx="8" cy="8" r="8" transform="translate(1306 425)" fill="#da994d"/>
    <circle id="Ellipse_33" data-name="Ellipse 33" cx="8" cy="8" r="8" transform="translate(1333 425)" fill="#da994d"/>
    <circle id="Ellipse_34" data-name="Ellipse 34" cx="8" cy="8" r="8" transform="translate(1360 425)" fill="#da994d"/>
    <circle id="Ellipse_35" data-name="Ellipse 35" cx="4.5" cy="4.5" r="4.5" transform="translate(1387 429)" fill="#da994d"/>
    <circle id="Ellipse_36" data-name="Ellipse 36" cx="4.5" cy="4.5" r="4.5" transform="translate(1286 450)" fill="#da994d"/>
    <circle id="Ellipse_37" data-name="Ellipse 37" cx="8" cy="8" r="8" transform="translate(1306 446)" fill="#da994d"/>
    <circle id="Ellipse_38" data-name="Ellipse 38" cx="8" cy="8" r="8" transform="translate(1333 446)" fill="#da994d"/>
    <circle id="Ellipse_39" data-name="Ellipse 39" cx="8" cy="8" r="8" transform="translate(1360 446)" fill="#da994d"/>
    <circle id="Ellipse_40" data-name="Ellipse 40" cx="4.5" cy="4.5" r="4.5" transform="translate(1387 450)" fill="#da994d"/>
    <circle id="Ellipse_41" data-name="Ellipse 41" cx="4.5" cy="4.5" r="4.5" transform="translate(1286 471)" fill="#da994d"/>
    <circle id="Ellipse_42" data-name="Ellipse 42" cx="8" cy="8" r="8" transform="translate(1306 467)" fill="#da994d"/>
    <circle id="Ellipse_43" data-name="Ellipse 43" cx="8" cy="8" r="8" transform="translate(1333 467)" fill="#da994d"/>
    <circle id="Ellipse_44" data-name="Ellipse 44" cx="8" cy="8" r="8" transform="translate(1360 467)" fill="#da994d"/>
    <circle id="Ellipse_45" data-name="Ellipse 45" cx="4.5" cy="4.5" r="4.5" transform="translate(1387 471)" fill="#da994d"/>
    <circle id="Ellipse_46" data-name="Ellipse 46" cx="4.5" cy="4.5" r="4.5" transform="translate(1286 513)" fill="#da994d"/>
    <circle id="Ellipse_47" data-name="Ellipse 47" cx="8" cy="8" r="8" transform="translate(1306 509)" fill="#da994d"/>
    <circle id="Ellipse_48" data-name="Ellipse 48" cx="8" cy="8" r="8" transform="translate(1333 509)" fill="#da994d"/>
    <circle id="Ellipse_49" data-name="Ellipse 49" cx="8" cy="8" r="8" transform="translate(1360 509)" fill="#da994d"/>
    <circle id="Ellipse_50" data-name="Ellipse 50" cx="4.5" cy="4.5" r="4.5" transform="translate(1387 513)" fill="#da994d"/>
    <circle id="Ellipse_51" data-name="Ellipse 51" cx="4.5" cy="4.5" r="4.5" transform="translate(1286 492)" fill="#da994d"/>
    <circle id="Ellipse_52" data-name="Ellipse 52" cx="8" cy="8" r="8" transform="translate(1306 488)" fill="#da994d"/>
    <circle id="Ellipse_53" data-name="Ellipse 53" cx="8" cy="8" r="8" transform="translate(1333 488)" fill="#da994d"/>
    <circle id="Ellipse_54" data-name="Ellipse 54" cx="8" cy="8" r="8" transform="translate(1360 488)" fill="#da994d"/>
    <circle id="Ellipse_55" data-name="Ellipse 55" cx="4.5" cy="4.5" r="4.5" transform="translate(1387 492)" fill="#da994d"/>
    <circle id="Ellipse_56" data-name="Ellipse 56" cx="4.5" cy="4.5" r="4.5" transform="translate(51 204)" fill="#da994d"/>
    <circle id="Ellipse_57" data-name="Ellipse 57" cx="8" cy="8" r="8" transform="translate(71 200)" fill="#da994d"/>
    <circle id="Ellipse_58" data-name="Ellipse 58" cx="8" cy="8" r="8" transform="translate(98 200)" fill="#da994d"/>
    <circle id="Ellipse_59" data-name="Ellipse 59" cx="8" cy="8" r="8" transform="translate(125 200)" fill="#da994d"/>
    <circle id="Ellipse_60" data-name="Ellipse 60" cx="4.5" cy="4.5" r="4.5" transform="translate(152 204)" fill="#da994d"/>
    <circle id="Ellipse_61" data-name="Ellipse 61" cx="4.5" cy="4.5" r="4.5" transform="translate(51 225)" fill="#da994d"/>
    <circle id="Ellipse_62" data-name="Ellipse 62" cx="8" cy="8" r="8" transform="translate(71 221)" fill="#da994d"/>
    <circle id="Ellipse_63" data-name="Ellipse 63" cx="8" cy="8" r="8" transform="translate(98 221)" fill="#da994d"/>
    <circle id="Ellipse_64" data-name="Ellipse 64" cx="8" cy="8" r="8" transform="translate(125 221)" fill="#da994d"/>
    <circle id="Ellipse_65" data-name="Ellipse 65" cx="4.5" cy="4.5" r="4.5" transform="translate(152 225)" fill="#da994d"/>
    <circle id="Ellipse_66" data-name="Ellipse 66" cx="4.5" cy="4.5" r="4.5" transform="translate(51 246)" fill="#da994d"/>
    <circle id="Ellipse_67" data-name="Ellipse 67" cx="8" cy="8" r="8" transform="translate(71 242)" fill="#da994d"/>
    <circle id="Ellipse_68" data-name="Ellipse 68" cx="8" cy="8" r="8" transform="translate(98 242)" fill="#da994d"/>
    <circle id="Ellipse_69" data-name="Ellipse 69" cx="8" cy="8" r="8" transform="translate(125 242)" fill="#da994d"/>
    <circle id="Ellipse_70" data-name="Ellipse 70" cx="4.5" cy="4.5" r="4.5" transform="translate(152 246)" fill="#da994d"/>
    <circle id="Ellipse_71" data-name="Ellipse 71" cx="4.5" cy="4.5" r="4.5" transform="translate(51 288)" fill="#da994d"/>
    <circle id="Ellipse_72" data-name="Ellipse 72" cx="8" cy="8" r="8" transform="translate(71 284)" fill="#da994d"/>
    <circle id="Ellipse_73" data-name="Ellipse 73" cx="8" cy="8" r="8" transform="translate(98 284)" fill="#da994d"/>
    <circle id="Ellipse_74" data-name="Ellipse 74" cx="8" cy="8" r="8" transform="translate(125 284)" fill="#da994d"/>
    <circle id="Ellipse_75" data-name="Ellipse 75" cx="4.5" cy="4.5" r="4.5" transform="translate(152 288)" fill="#da994d"/>
    <circle id="Ellipse_76" data-name="Ellipse 76" cx="4.5" cy="4.5" r="4.5" transform="translate(51 267)" fill="#da994d"/>
    <circle id="Ellipse_77" data-name="Ellipse 77" cx="8" cy="8" r="8" transform="translate(71 263)" fill="#da994d"/>
    <circle id="Ellipse_78" data-name="Ellipse 78" cx="8" cy="8" r="8" transform="translate(98 263)" fill="#da994d"/>
    <circle id="Ellipse_79" data-name="Ellipse 79" cx="8" cy="8" r="8" transform="translate(125 263)" fill="#da994d"/>
    <circle id="Ellipse_80" data-name="Ellipse 80" cx="4.5" cy="4.5" r="4.5" transform="translate(152 267)" fill="#da994d"/>
    <path id="Path_14" data-name="Path 14" d="M0,395.594c33.472,14.645,115.8,8.388,177.329-133.8,76.914-177.736,126.054,43.934,378.161-61.908,201.685-84.675,673.71,13.979,884.51,73.89" fill="none" stroke="#d9d9d9" stroke-width="1"/>
  </g>
</svg>
