<svg width="54" height="54" viewBox="0 0 54 54" fill="none" xmlns="http://www.w3.org/2000/svg">
<path d="M50.4 12.4867C48.6774 13.2517 46.827 13.7665 44.8848 13.9987C46.8684 12.8107 48.3894 10.9297 49.1058 8.68686C47.2518 9.78666 45.1962 10.5859 43.0074 11.0179C41.256 9.15126 38.7612 7.98486 36 7.98486C30.6972 7.98486 26.3988 12.2851 26.3988 17.5861C26.3988 18.3385 26.4852 19.0729 26.6472 19.7731C18.6678 19.3735 11.5938 15.5503 6.85621 9.73986C6.03181 11.1583 5.55841 12.8071 5.55841 14.5693C5.55841 17.8993 7.25221 20.8387 9.82801 22.5595C8.25481 22.5091 6.77341 22.0771 5.47921 21.3589C5.47921 21.4003 5.47921 21.4381 5.47921 21.4795C5.47921 26.1325 8.78761 30.0133 13.1814 30.8935C12.3768 31.1131 11.5272 31.2301 10.6506 31.2301C10.0332 31.2301 9.43021 31.1689 8.84521 31.0591C10.0674 34.8733 13.6134 37.6507 17.8146 37.7281C14.5296 40.3039 10.3896 41.8393 5.88961 41.8393C5.11561 41.8393 4.35061 41.7943 3.59821 41.7043C7.84801 44.4277 12.8934 46.0171 18.3168 46.0171C35.9784 46.0171 45.6336 31.3867 45.6336 18.6985C45.6336 18.2827 45.6246 17.8687 45.6066 17.4565C47.484 16.1011 49.113 14.4109 50.4 12.4867Z" fill="white"/>
</svg>
